<svg width="310" height="340" xmlns="http://www.w3.org/2000/svg" xmlns:xlink="http://www.w3.org/1999/xlink" overflow="hidden"><g transform="translate(-34 -19)"><path d="M344 247.833C344 258.419 335.419 267 324.833 267L299.167 267C288.581 267 280 258.419 280 247.833L280 130.167C280 119.581 288.581 111 299.167 111L324.833 111C335.419 111 344 119.581 344 130.167Z" fill="#14833B" fill-rule="evenodd"/><path d="M304 277.833C304 288.419 295.419 297 284.833 297L259.167 297C248.581 297 240 288.419 240 277.833L240 100.167C240 89.5812 248.581 81 259.167 81L284.833 81C295.419 81 304 89.5812 304 100.167Z" fill="#199E47" fill-rule="evenodd"/><path d="M263 299.833C263 310.419 254.419 319 243.833 319L218.167 319C207.581 319 199 310.419 199 299.833L199 78.1668C199 67.5813 207.581 59 218.167 59L243.833 59C254.419 59 263 67.5813 263 78.1668Z" fill="#1DB954" fill-rule="evenodd"/><path d="M214 320.833C214 331.419 205.419 340 194.833 340L169.167 340C158.581 340 150 331.419 150 320.833L150 57.1667C150 46.5812 158.581 38 169.167 38L194.833 38C205.419 38 214 46.5812 214 57.1667Z" fill="#1ED760" fill-rule="evenodd"/><path d="M172 338.833C172 349.419 163.419 358 152.833 358L127.167 358C116.581 358 108 349.419 108 338.833L108 38.1666C108 27.5812 116.581 19 127.167 19L152.833 19C163.419 19 172 27.5812 172 38.1666Z" fill="#1FF06C" fill-rule="evenodd"/><g><g><g><path d="M15.3333 99.82 15.3333 115C15.3333 153.333 30.6667 168.667 69 168.667L115 168.667C153.333 168.667 168.667 153.333 168.667 115L168.667 69C168.667 30.6667 153.333 15.3333 115 15.3333L69 15.3333C30.6667 15.3333 15.3333 30.6667 15.3333 69" stroke="#169141" stroke-width="11.5001" stroke-linecap="round" stroke-linejoin="round" fill="#FFFFFF" transform="matrix(1.00543 0 0 1 34 97)"/><path d="M110.398 73.6008 73.597 73.6008 73.597 110.401 110.398 110.401 110.398 73.6008Z" stroke="#169141" stroke-width="11.5001" stroke-linecap="round" stroke-linejoin="round" fill="#FFFFFF" transform="matrix(1.00543 0 0 1 34 97)"/><path d="M59.7999 137.999C67.3899 137.999 73.5998 131.789 73.5998 124.199L73.5998 110.399 59.7999 110.399C52.2099 110.399 46 116.609 46 124.199 46 131.789 52.2099 137.999 59.7999 137.999Z" stroke="#169141" stroke-width="11.5001" stroke-linecap="round" stroke-linejoin="round" fill="#FFFFFF" transform="matrix(1.00543 0 0 1 34 97)"/><path d="M59.7999 73.6001 73.5998 73.6001 73.5998 59.7999C73.5998 52.2099 67.3899 46 59.7999 46 52.2099 46 46 52.2099 46 59.7999 46 67.3899 52.2099 73.6001 59.7999 73.6001Z" stroke="#169141" stroke-width="11.5001" stroke-linecap="round" stroke-linejoin="round" fill="#FFFFFF" transform="matrix(1.00543 0 0 1 34 97)"/><path d="M110.403 73.6001 124.203 73.6001C131.793 73.6001 138.003 67.3899 138.003 59.7999 138.003 52.2099 131.793 46 124.203 46 116.613 46 110.403 52.2099 110.403 59.7999L110.403 73.6001Z" stroke="#169141" stroke-width="11.5001" stroke-linecap="round" stroke-linejoin="round" fill="#FFFFFF" transform="matrix(1.00543 0 0 1 34 97)"/><path d="M124.203 137.999C131.793 137.999 138.003 131.789 138.003 124.199 138.003 116.609 131.793 110.399 124.203 110.399L110.403 110.399 110.403 124.199C110.403 131.789 116.613 137.999 124.203 137.999Z" stroke="#169141" stroke-width="11.5001" stroke-linecap="round" stroke-linejoin="round" fill="#FFFFFF" transform="matrix(1.00543 0 0 1 34 97)"/></g></g></g></g></svg>